<?xml version="1.0" encoding="utf-8"?>
<!-- Generator: Adobe Illustrator 26.0.1, SVG Export Plug-In . SVG Version: 6.00 Build 0)  -->
<svg version="1.2" baseProfile="tiny" id="Layer_1" xmlns="http://www.w3.org/2000/svg"
     x="0px" y="0px" viewBox="0 0 48 48" overflow="visible" xml:space="preserve">
<path fill="#FFFFFF" d="M10.9,37l17.4-8.5L36.8,11l-17.4,8.5L10.9,37z M24,48c-3.2,0-6.4-0.6-9.4-1.9c-2.9-1.2-5.5-3-7.7-5.2
	s-3.8-4.7-5.2-7.7c-1.3-3-1.8-6-1.8-9.2c0-3.4,0.6-6.5,1.9-9.4s3-5.4,5.2-7.7s4.7-3.8,7.7-5.2S20.8,0,24,0c3.4,0,6.5,0.6,9.4,1.9
	c2.9,1.3,5.5,3,7.6,5.2c2.2,2.2,3.8,4.7,5.2,7.7c1.3,2.9,1.9,6,1.9,9.4c0,3.2-0.6,6.4-1.9,9.4c-1.2,2.9-3,5.5-5.2,7.7
	c-2.2,2.2-4.7,3.8-7.7,5.2C30.5,47.4,27.4,48,24,48z"/>
</svg>
