<?xml version="1.0" encoding="utf-8"?>
<!-- Generator: Adobe Illustrator 26.0.1, SVG Export Plug-In . SVG Version: 6.00 Build 0)  -->
<svg version="1.2" baseProfile="tiny" id="Layer_1" xmlns="http://www.w3.org/2000/svg" xmlns:xlink="http://www.w3.org/1999/xlink"
	 x="0px" y="0px" viewBox="0 0 24 24" overflow="visible" xml:space="preserve">
<path fill="#FFFFFF" d="M23.1,7.1c-0.6-1.4-1.5-2.7-2.5-3.7c-1.1-1.1-2.3-1.9-3.7-2.5C15.4,0.3,13.9,0,12.3,0
	c-1.6,0-3.1,0.3-4.6,0.9C6.3,1.5,5.1,2.4,4,3.4C3,4.5,2.1,5.7,1.5,7.1c-0.6,1.4-0.9,2.9-0.9,4.6c0,0.9,0.1,1.8,0.3,2.7
	C1,15.3,1.3,16.2,1.7,17L0,22.9c-0.1,0.3,0,0.6,0.2,0.9s0.5,0.3,0.9,0.2L7,22.3c0.8,0.4,1.7,0.7,2.6,0.8c0.9,0.2,1.8,0.3,2.7,0.3
	c1.6,0,3.1-0.3,4.6-0.9c1.4-0.6,2.7-1.5,3.7-2.5c1.1-1.1,1.9-2.3,2.5-3.7c0.6-1.4,0.9-2.9,0.9-4.6C24,10.1,23.7,8.6,23.1,7.1z
	 M12.3,16.1c-2.5,0-4.5-2-4.5-4.5c0-2.5,2-4.5,4.5-4.5c2.5,0,4.5,2,4.5,4.5C16.8,14.1,14.8,16.1,12.3,16.1z"/>
</svg>
