<?xml version="1.0" encoding="utf-8"?>
<!-- Generator: Adobe Illustrator 26.0.1, SVG Export Plug-In . SVG Version: 6.00 Build 0)  -->
<svg version="1.2" baseProfile="tiny" id="Layer_1" xmlns="http://www.w3.org/2000/svg"
     x="0px" y="0px" viewBox="0 0 24 24" overflow="visible" xml:space="preserve">
<path fill="#FFFFFF" d="M5.8,20.7c-1.6,0-3-0.6-4.1-1.7C0.6,17.9,0,16.6,0,15c0-1.4,0.5-2.7,1.4-3.7s2.1-1.7,3.5-1.9
	C5.2,7.5,6,6.1,7.4,5s2.9-1.7,4.7-1.7c2,0,3.8,0.7,5.2,2.2s2.1,3.3,2.1,5.3v0.7c1.3,0,2.4,0.4,3.3,1.3c0.9,0.9,1.4,2,1.4,3.3
	c0,1.3-0.5,2.3-1.4,3.2s-2,1.4-3.2,1.4H5.8z"/>
</svg>
