<?xml version="1.0" encoding="utf-8"?>
<!-- Generator: Adobe Illustrator 26.0.1, SVG Export Plug-In . SVG Version: 6.00 Build 0)  -->
<svg version="1.2" baseProfile="tiny" id="Layer_1" xmlns="http://www.w3.org/2000/svg" xmlns:xlink="http://www.w3.org/1999/xlink"
	 x="0px" y="0px" viewBox="0 0 48 48" overflow="visible" xml:space="preserve">
<g>
	<path fill="#FFFFFF" d="M14,15.2c-0.6,0-1.5,0.2-2.3,1c-0.6,0.6-1,1.5-1,2.4c0,1.3,0.5,2.1,1,2.6l9.9,9.9c0.4,0.4,0.8,0.6,1.2,0.8
		c0.4,0.2,0.8,0.2,1.3,0.2c0.5,0,0.9-0.1,1.3-0.2c0.4-0.2,0.8-0.4,1.2-0.8l9.8-9.8l0,0l0,0c0.5-0.6,0.9-1.4,1-2.2c0.1-1-0.2-2-1-2.7
		c-0.6-0.7-1.4-1-2.4-1c-0.1,0-0.2,0-0.3,0c-0.9,0.1-1.7,0.4-2.3,1L24,23.7l-7.4-7.4l0,0l0,0c-0.6-0.5-1.3-0.9-2.1-1
		C14.3,15.2,14.2,15.2,14,15.2L14,15.2z"/>
</g>
</svg>
